<svg width="284" height="145" viewBox="0 0 284 145" fill="none" xmlns="http://www.w3.org/2000/svg">
<g clip-path="url(#clip0_101_3)">
<path d="M116.852 27.8346C117.049 27.4962 117.541 27.4962 117.737 27.8346L148.194 80.2486L160.067 100.683C160.158 100.84 160.327 100.936 160.509 100.936H174.839C175.233 100.936 175.478 100.514 175.282 100.175L162.908 78.8811C162.864 78.8041 162.84 78.7164 162.84 78.6275V13.4356C162.84 13.155 162.611 12.9276 162.329 12.9276H149.919C149.637 12.9276 149.408 13.155 149.408 13.4356V55.646V55.6455L125.05 13.727L117.738 1.14249C117.541 0.804065 117.049 0.804065 116.853 1.14249L109.54 13.727" fill="#213462"/>
<path d="M114.913 20.041L60.564 126.544C60.4727 126.701 60.3039 126.797 60.1213 126.797H0.810382C0.528657 126.797 0.299805 127.025 0.299805 127.305V139.636C0.299805 139.917 0.528657 140.144 0.810382 140.144H52.6613L52.6599 140.145H68.1158H68.1699L122.225 34.1488" fill="#213462"/>
<path d="M194.905 79.2853V89.1547H205.161V76.4944C205.161 72.2557 201.867 68.8773 197.819 68.8773H191.075V78.8027H194.419C194.686 78.8027 194.905 79.0125 194.905 79.2853ZM209.962 101.06H241.597V91.1342H237.113V78.8027C237.113 72.3676 233.607 68.8773 227.131 68.8773H210.933V78.8027H224.055C225.836 78.8027 226.857 79.8169 226.857 81.5935V91.1342H209.962V101.06ZM268.426 101.06H278.682C278.682 94.5686 277.007 88.5112 273.874 83.3632C277.225 81.3207 278.95 77.9983 278.95 74.0253V68.8773H268.693V73.172C268.693 74.4031 268.588 75.3683 267.884 76.2286C262.217 71.2904 254.608 68.3457 245.485 68.3457V101.06H255.741V80.8941C263.731 84.2165 268.426 91.5679 268.426 101.06Z" fill="#A6C3DD"/>
<path d="M109.214 128.037V140.145H110.755V127.457C110.755 126.401 110.072 125.722 109.009 125.722H96.8242V127.254H99.2528V138.606H96.8242V140.145H100.801V127.254H108.453C108.904 127.254 109.214 127.562 109.214 128.037ZM115.722 127.835V140.145H117.263V127.254C117.263 126.324 116.658 125.722 115.722 125.722H113.237V127.254H115.137C115.489 127.254 115.722 127.485 115.722 127.835ZM132.313 140.145H133.862C133.862 137.424 133.278 134.885 132.215 132.696C133.531 131.815 133.932 130.954 133.932 129.248V125.722H132.391V129.171C132.391 130.304 132.187 130.828 131.504 131.388C129.251 127.786 125.549 125.47 120.966 125.47V140.145H122.507V127.156C128.336 127.961 132.313 133.346 132.313 140.145ZM148.733 128.037V140.145H150.274V127.457C150.274 126.401 149.592 125.722 148.529 125.722H136.344V127.254H138.772V138.606H136.344V140.145H140.321V127.254H147.973C148.423 127.254 148.733 127.562 148.733 128.037ZM157.092 127.835V138.606H153.291V140.145H158.634V127.254C158.634 126.324 158.028 125.722 157.092 125.722H154.558V127.254H156.508C156.86 127.254 157.092 127.485 157.092 127.835ZM161.448 140.145H166.565C170.719 140.145 173.527 137.48 173.527 132.892C173.527 128.415 170.796 125.722 166.439 125.722H161.448V127.233H166.439C170.008 127.233 171.986 129.443 171.986 132.92C171.986 136.473 169.958 138.634 166.516 138.634H161.448V140.145ZM183.666 140.551C187.946 140.551 190.987 137.606 190.987 133.577V125.722H189.438V133.395C189.438 136.9 186.932 139.061 183.666 139.061C180.393 139.061 177.915 136.872 177.915 133.395V125.722H176.366V133.577C176.366 137.606 179.379 140.551 183.666 140.551ZM182.906 136.949H184.426V125.722H182.906V136.949ZM194.403 131.738V140.145H195.944V131.815C195.944 128.765 197.972 126.855 200.809 126.855C203.674 126.855 205.701 128.765 205.701 131.787V138.606H199.999V140.145H207.25V131.64C207.25 127.835 204.737 125.317 200.914 125.317C198.683 125.317 197.24 126.121 196.43 127.002H196.402V126.681C196.402 126.051 196.148 125.722 195.437 125.722H193.516V127.31H194.959C195.184 127.31 195.311 127.408 195.311 127.611V128.212C194.733 129.094 194.403 130.276 194.403 131.738ZM214.236 138.935L214.595 140.397C218.826 138.557 221.536 135.263 221.536 129.22V125.722H211.125V121.994H209.576V127.254H219.987V129.625C219.987 134.354 217.833 137.2 214.236 138.935ZM240.74 128.037V140.145H242.281V127.457C242.281 126.401 241.598 125.722 240.535 125.722H228.35V127.254H230.779V138.606H228.35V140.145H232.328V127.254H239.979C240.43 127.254 240.74 127.562 240.74 128.037ZM248.057 127.835V134.459H249.606V127.254C249.606 126.324 248.993 125.722 248.057 125.722H244.763V127.254H247.473C247.832 127.254 248.057 127.485 248.057 127.835ZM252.085 140.145H265.636V138.606H263.257V131.535C263.257 127.737 260.976 125.722 257.203 125.722H252.543V127.254H257.175C260.188 127.254 261.708 128.765 261.708 131.535V138.606H252.085V140.145ZM278.304 127.835V140.145H279.852V127.254C279.852 126.324 279.24 125.722 278.304 125.722H268.097V127.254H277.719C278.078 127.254 278.304 127.485 278.304 127.835ZM268.097 140.145H269.638V131.892H268.097V140.145Z" fill="#213462"/>
<mask id="mask0_101_3" style="mask-type:luminance" maskUnits="userSpaceOnUse" x="-11467" y="-10787" width="22145" height="22004">
<path d="M-11466.4 -10786.2H10677.3V11216.6H-11466.4V-10786.2Z" fill="url(#paint0_linear_101_3)"/>
</mask>
<g mask="url(#mask0_101_3)">
<mask id="mask1_101_3" style="mask-type:luminance" maskUnits="userSpaceOnUse" x="96" y="112" width="186" height="2">
<path d="M97.3105 112.954C96.8528 112.954 96.4863 112.968 96.4863 112.989V113.865C96.4863 113.885 96.8528 113.902 97.3105 113.902H281.217V112.954L97.3105 112.954Z" fill="white"/>
</mask>
<g mask="url(#mask1_101_3)">
<path d="M97.3105 112.954C96.8527 112.954 96.4863 112.968 96.4863 112.989V113.865C96.4863 113.885 96.8527 113.902 97.3105 113.902H281.217V112.954H97.3105Z" fill="url(#paint1_linear_101_3)"/>
</g>
</g>
</g>
<defs>
<linearGradient id="paint0_linear_101_3" x1="-173.143" y1="137.038" x2="-277.054" y2="137.038" gradientUnits="userSpaceOnUse">
<stop stop-color="white"/>
<stop offset="0.521808" stop-color="white"/>
<stop offset="1" stop-color="white" stop-opacity="0"/>
</linearGradient>
<linearGradient id="paint1_linear_101_3" x1="281.217" y1="113.428" x2="96.4866" y2="113.428" gradientUnits="userSpaceOnUse">
<stop stop-color="#F2531B"/>
<stop offset="0.521808" stop-color="#F2531B"/>
<stop offset="1" stop-color="#F7F3E6"/>
</linearGradient>
<clipPath id="clip0_101_3">
<rect width="284" height="145" fill="white"/>
</clipPath>
</defs>
</svg>
